<svg xmlns="http://www.w3.org/2000/svg" viewBox="0 0 512 512" width="512" height="512">
  <!-- Background -->
  <rect width="512" height="512" rx="100" fill="#4F46E5" />
  
  <!-- Book base -->
  <path d="M128 128 L384 128 L384 384 L128 384 Z" fill="#ffffff" />
  
  <!-- Book cover -->
  <path d="M128 128 L256 168 L384 128 L384 384 L256 336 L128 384 Z" fill="#E5E7EB" />
  
  <!-- Book pages -->
  <path d="M256 168 L256 336 L384 384 L384 128 Z" fill="#ffffff" />
  
  <!-- Bookmark -->
  <path d="M320 128 L320 280 L288 260 L256 280 L256 128 Z" fill="#4F46E5" />
  
  <!-- Arabic script element 1 -->
  <path d="M160 200 C180 180, 200 220, 220 200 S240 180, 260 200" stroke="#4F46E5" stroke-width="12" fill="none" />
  
  <!-- Arabic script element 2 -->
  <path d="M160 240 C180 220, 200 260, 220 240 S240 220, 260 240" stroke="#4F46E5" stroke-width="12" fill="none" />
  
  <!-- Arabic script element 3 -->
  <path d="M160 280 C180 260, 200 300, 220 280 S240 260, 260 280" stroke="#4F46E5" stroke-width="12" fill="none" />
</svg>