<svg xmlns="http://www.w3.org/2000/svg" viewBox="0 0 192 192" width="192" height="192">
  <!-- Background -->
  <rect width="192" height="192" rx="38" fill="#4F46E5" />
  
  <!-- Book base -->
  <path d="M48 48 L144 48 L144 144 L48 144 Z" fill="#ffffff" />
  
  <!-- Book cover -->
  <path d="M48 48 L96 63 L144 48 L144 144 L96 126 L48 144 Z" fill="#E5E7EB" />
  
  <!-- Book pages -->
  <path d="M96 63 L96 126 L144 144 L144 48 Z" fill="#ffffff" />
  
  <!-- Bookmark -->
  <path d="M120 48 L120 105 L108 97 L96 105 L96 48 Z" fill="#4F46E5" />
  
  <!-- Arabic script element 1 -->
  <path d="M60 75 C67 67, 75 82, 82 75 S90 67, 97 75" stroke="#4F46E5" stroke-width="4" fill="none" />
  
  <!-- Arabic script element 2 -->
  <path d="M60 90 C67 82, 75 97, 82 90 S90 82, 97 90" stroke="#4F46E5" stroke-width="4" fill="none" />
  
  <!-- Arabic script element 3 -->
  <path d="M60 105 C67 97, 75 112, 82 105 S90 97, 97 105" stroke="#4F46E5" stroke-width="4" fill="none" />
</svg>